<?xml version="1.0" standalone="no"?>
<!DOCTYPE svg PUBLIC "-//W3C//DTD SVG 20010904//EN"
 "http://www.w3.org/TR/2001/REC-SVG-20010904/DTD/svg10.dtd">
<svg version="1.0" xmlns="http://www.w3.org/2000/svg"
 width="300.000000pt" height="300.000000pt" viewBox="0 0 300.000000 300.000000"
 preserveAspectRatio="xMidYMid meet">
<metadata>
Created by potrace 1.16, written by Peter Selinger 2001-2019
</metadata>
<g transform="translate(0.000000,300.000000) scale(0.060120,-0.102740)"
fill="#000000" stroke="none">
<path d="M2240 2725 c-182 -52 -337 -156 -444 -300 -80 -107 -114 -175 -154
-305 -24 -77 -34 -229 -22 -319 50 -359 281 -626 629 -727 133 -39 391 -31
496 15 11 5 40 17 65 27 75 30 201 117 269 185 106 107 184 248 222 402 32
127 26 357 -11 442 -5 11 -17 43 -26 70 -89 246 -333 458 -601 520 -105 24
-318 19 -423 -10z m395 -164 c306 -80 515 -350 515 -664 0 -52 -4 -107 -9
-123 -5 -16 -16 -54 -25 -84 -20 -66 -67 -156 -81 -153 -6 1 -38 5 -73 9 -40
4 -66 12 -69 21 -4 10 -9 11 -18 3 -10 -8 -25 -8 -55 0 -33 9 -173 16 -415 22
-5 0 -41 -3 -80 -7 -38 -3 -113 -8 -165 -9 -58 -2 -96 -8 -98 -15 -2 -6 -17
-11 -32 -11 -16 0 -50 -7 -76 -16 -47 -16 -48 -16 -65 8 -10 12 -19 26 -19 30
0 4 -11 31 -24 60 -43 98 -51 138 -51 273 0 142 7 174 68 305 22 47 97 147
142 189 50 46 139 105 193 128 126 54 308 68 437 34z m175 -1120 c14 -10 43
-21 64 -24 23 -4 51 -17 65 -32 22 -22 24 -28 13 -45 -6 -11 -12 -32 -12 -46
l0 -26 -27 18 c-38 24 -108 23 -159 -4 -114 -58 -299 -78 -433 -46 -73 17 -95
25 -162 60 -35 18 -63 24 -108 24 -47 0 -63 4 -68 16 -3 9 0 20 8 24 11 7 10
13 -6 29 -10 12 -16 23 -13 26 3 3 31 10 64 16 32 6 63 15 68 20 18 17 82 10
101 -11 16 -17 27 -20 69 -15 65 7 227 24 331 35 104 10 174 4 205 -19z"/>
<path d="M2817 2233 c-4 -3 -7 -17 -7 -30 0 -12 -4 -23 -10 -23 -5 0 -10 -5
-10 -12 0 -6 -6 -19 -14 -27 -19 -21 -25 -103 -8 -109 16 -5 16 -23 0 -19 -9
1 -12 -11 -9 -42 2 -34 13 -58 45 -99 22 -30 48 -64 56 -75 9 -13 17 -55 21
-111 l6 -91 1 93 c2 73 5 92 16 92 8 0 17 -4 21 -9 4 -8 72 -44 128 -69 4 -2
7 16 7 40 0 39 -3 45 -30 55 -18 7 -32 7 -36 2 -3 -5 -15 -3 -27 6 -12 8 -29
15 -38 15 -9 0 -28 9 -42 20 -14 11 -31 20 -39 20 -18 1 -44 39 -53 79 l-7 34
33 -7 c19 -3 41 -7 49 -7 8 -1 22 -7 30 -14 8 -6 25 -12 38 -13 45 -2 88 -22
105 -50 18 -27 18 -27 11 -2 -17 68 -79 128 -187 184 -48 25 -53 25 -64 9 -7
-9 -13 -12 -13 -6 0 7 4 14 9 17 4 3 6 17 4 30 -3 14 3 45 12 71 17 42 17 64
2 48z"/>
<path d="M2155 2104 c2 -41 1 -42 -34 -48 -75 -13 -193 -117 -206 -181 -4 -23
-3 -25 4 -10 15 33 44 52 91 59 24 4 64 16 88 26 24 11 48 17 53 14 26 -16
-15 -114 -47 -114 -9 0 -27 -9 -41 -20 -14 -11 -33 -20 -43 -20 -9 0 -20 -3
-24 -7 -4 -4 -15 -8 -24 -8 -65 -5 -62 -2 -62 -51 l0 -45 53 27 c28 16 60 35
70 43 9 8 20 11 24 8 3 -4 12 -2 20 4 10 9 13 8 13 -5 0 -10 5 -14 10 -11 6 4
8 15 5 24 -3 10 2 24 11 32 8 7 29 33 46 57 29 42 31 50 31 137 0 78 -3 95
-20 112 -19 19 -19 19 -18 -23z"/>
<path d="M2465 2092 c6 -4 30 -45 53 -92 46 -91 114 -185 134 -185 16 0 40
130 32 173 -4 22 -12 32 -25 32 -10 0 -21 5 -24 10 -3 6 -16 10 -28 10 -12 0
-49 14 -81 30 -56 28 -83 38 -61 22z"/>
<path d="M2430 2079 c-41 -22 -85 -39 -101 -39 -10 0 -21 -4 -24 -10 -3 -5
-15 -10 -25 -10 -27 0 -33 -30 -24 -128 4 -48 7 -95 5 -104 -1 -10 3 -18 8
-18 6 0 11 5 11 11 0 7 15 30 33 53 46 57 122 181 140 228 7 21 -3 29 -23 17z"/>
<path d="M2465 1420 c-201 -13 -305 -28 -285 -40 8 -5 10 -16 6 -26 -6 -16 1
-17 91 -10 121 8 231 20 293 32 8 2 53 6 100 10 47 3 87 8 89 10 2 2 -1 9 -7
16 -13 16 -117 18 -287 8z"/>
</g>
</svg>
